<?xml version="1.0" encoding="iso-8859-1"?>
<!-- Uploaded to: SVG Repo, www.svgrepo.com, Generator: SVG Repo Mixer Tools -->
<svg version="1.1" id="Layer_1" xmlns="http://www.w3.org/2000/svg" xmlns:xlink="http://www.w3.org/1999/xlink" 
	 viewBox="0 0 496.2 496.2" xml:space="preserve">
<path style="fill:#25B7D3;" d="M496.2,248.1C496.2,111.1,385.1,0,248.1,0S0,111.1,0,248.1s111.1,248.1,248.1,248.1
	S496.2,385.1,496.2,248.1z"/>
<path style="fill:#CECECC;" d="M350.5,386.7c0,16.3-13.2,29.4-29.4,29.4h-146c-16.3,0-29.4-13.2-29.4-29.4V109.5
	c0-16.3,13.2-29.4,29.4-29.4h146c16.3,0,29.4,13.2,29.4,29.4V386.7z"/>
<path style="fill:#C2C2BA;" d="M175.1,416.1h146c16.3,0,29.4-13.2,29.4-29.4V109.5c0-7.6-2.9-14.6-7.7-19.8L145.7,239.1v147.6
	C145.7,402.9,158.9,416.1,175.1,416.1z"/>
<rect x="163.1" y="98.1" style="fill:#3A3A38;" width="170" height="127.5"/>
<polygon style="fill:#4F4F4E;" points="163.1,98.1 333.1,98.1 163.1,225.6 "/>
<circle style="fill:#E8E6E3;" cx="248.1" cy="320.4" r="61.3"/>
<circle style="fill:#C2C2BA;" cx="248.1" cy="320.4" r="22.1"/>
<g>
	<path style="fill:#A8A8A5;" d="M195.4,320.2l8.2-5.1c0.2-0.1,0.5-0.1,0.8,0c0.2,0.1,0.4,0.4,0.4,0.6v10.1c0,0.3-0.1,0.5-0.4,0.6
		c-0.1,0.1-0.2,0.1-0.4,0.1c-0.1,0-0.3,0-0.4-0.1l-8.2-5c-0.2-0.1-0.4-0.4-0.4-0.6C195,320.6,195.2,320.4,195.4,320.2z"/>
	<path style="fill:#A8A8A5;" d="M206.1,320.2l8.2-5.1c0.2-0.1,0.5-0.1,0.8,0c0.2,0.1,0.4,0.4,0.4,0.6v10.1c0,0.3-0.1,0.5-0.4,0.6
		c-0.1,0.1-0.2,0.1-0.4,0.1c-0.1,0-0.3,0-0.4-0.1l-8.2-5c-0.2-0.1-0.4-0.4-0.4-0.6C205.8,320.6,205.9,320.4,206.1,320.2z"/>
	<path style="fill:#A8A8A5;" d="M300.1,321.5l-8.2,5.1c-0.2,0.1-0.5,0.1-0.8,0c-0.2-0.1-0.4-0.4-0.4-0.6v-10.1
		c0-0.3,0.1-0.5,0.4-0.6c0.1-0.1,0.2-0.1,0.4-0.1c0.1,0,0.3,0,0.4,0.1l8.2,5c0.2,0.1,0.4,0.4,0.4,0.6S300.3,321.3,300.1,321.5z"/>
	<path style="fill:#A8A8A5;" d="M289.4,321.5l-8.2,5.1c-0.2,0.1-0.5,0.1-0.8,0c-0.2-0.1-0.4-0.4-0.4-0.6v-10.1
		c0-0.3,0.1-0.5,0.4-0.6c0.1-0.1,0.2-0.1,0.4-0.1c0.1,0,0.3,0,0.4,0.1l8.2,5c0.2,0.1,0.4,0.4,0.4,0.6
		C289.7,321.1,289.6,321.3,289.4,321.5z"/>
	<path style="fill:#A8A8A5;" d="M248,361.9l-7.5-4.6c-0.2-0.1-0.5-0.1-0.7,0s-0.3,0.3-0.3,0.6v9.2c0,0.2,0.1,0.5,0.3,0.6
		c0.1,0.1,0.2,0.1,0.3,0.1s0.2,0,0.4-0.1l7.5-4.6c0.2-0.1,0.3-0.3,0.3-0.6C248.3,362.2,248.2,362,248,361.9z"/>
	<path style="fill:#A8A8A5;" d="M254.6,357H252c-0.2,0-0.4,0.2-0.4,0.4v10c0,0.2,0.2,0.4,0.4,0.4h2.6c0.2,0,0.4-0.2,0.4-0.4v-10
		C255,357.2,254.8,357,254.6,357z"/>
	<path style="fill:#A8A8A5;" d="M259.3,357h-2.6c-0.2,0-0.4,0.2-0.4,0.4v10c0,0.2,0.2,0.4,0.4,0.4h2.6c0.2,0,0.4-0.2,0.4-0.4v-10
		C259.7,357.2,259.5,357,259.3,357z"/>
	<path style="fill:#A8A8A5;" d="M235.3,281.9l-1.3-5.1v5.6c0,0.3-0.1,0.5-0.2,0.7c-0.1,0.2-0.3,0.2-0.5,0.2s-0.4-0.1-0.5-0.2
		c-0.1-0.2-0.2-0.4-0.2-0.7V276c0-0.4,0.1-0.6,0.3-0.7s0.4-0.2,0.7-0.2h0.5c0.3,0,0.5,0,0.7,0.1c0.1,0.1,0.2,0.2,0.3,0.3
		c0.1,0.1,0.1,0.4,0.2,0.7l1.2,4.4l1.2-4.4c0.1-0.3,0.2-0.6,0.2-0.7c0.1-0.1,0.2-0.2,0.3-0.3s0.4-0.1,0.7-0.1h0.5
		c0.3,0,0.6,0.1,0.7,0.2c0.2,0.1,0.3,0.4,0.3,0.7v6.4c0,0.3-0.1,0.5-0.2,0.7c-0.1,0.2-0.3,0.2-0.6,0.2c-0.2,0-0.4-0.1-0.5-0.2
		c-0.1-0.2-0.2-0.4-0.2-0.7v-5.6l-1.3,5.1c-0.1,0.3-0.2,0.6-0.2,0.7s-0.2,0.3-0.3,0.4s-0.3,0.2-0.6,0.2c-0.2,0-0.4,0-0.5-0.1
		s-0.2-0.2-0.3-0.3c-0.1-0.1-0.1-0.3-0.2-0.4C235.4,282.2,235.4,282.1,235.3,281.9z"/>
	<path style="fill:#A8A8A5;" d="M247.3,276.3h-3.7v2h3.4c0.2,0,0.4,0.1,0.6,0.2s0.2,0.3,0.2,0.4c0,0.2-0.1,0.3-0.2,0.4
		c-0.1,0.1-0.3,0.2-0.6,0.2h-3.4v2.3h3.8c0.3,0,0.5,0.1,0.6,0.2c0.1,0.1,0.2,0.3,0.2,0.5s-0.1,0.3-0.2,0.5c-0.1,0.1-0.3,0.2-0.6,0.2
		H243c-0.4,0-0.6-0.1-0.8-0.2c-0.2-0.2-0.2-0.4-0.2-0.8v-6.1c0-0.2,0-0.4,0.1-0.6c0.1-0.1,0.2-0.3,0.3-0.3c0.1-0.1,0.3-0.1,0.6-0.1
		h4.3c0.3,0,0.5,0.1,0.6,0.2s0.2,0.3,0.2,0.5s-0.1,0.3-0.2,0.5C247.7,276.3,247.5,276.3,247.3,276.3z"/>
	<path style="fill:#A8A8A5;" d="M251.6,275.9l3.1,4.7v-4.8c0-0.3,0.1-0.5,0.2-0.7s0.3-0.2,0.5-0.2s0.4,0.1,0.6,0.2
		c0.1,0.2,0.2,0.4,0.2,0.7v6.3c0,0.7-0.3,1.1-0.9,1.1c-0.1,0-0.3,0-0.4-0.1c-0.1,0-0.2-0.1-0.3-0.2c-0.1-0.1-0.2-0.2-0.3-0.3
		c-0.1-0.1-0.2-0.2-0.3-0.4l-3.1-4.7v4.7c0,0.3-0.1,0.5-0.2,0.7s-0.3,0.2-0.5,0.2s-0.4-0.1-0.6-0.2c-0.1-0.2-0.2-0.4-0.2-0.7v-6.1
		c0-0.3,0-0.5,0.1-0.6c0.1-0.2,0.2-0.3,0.3-0.4c0.2-0.1,0.3-0.2,0.5-0.2c0.1,0,0.3,0,0.4,0.1c0.1,0,0.2,0.1,0.3,0.2s0.2,0.2,0.2,0.3
		S251.5,275.8,251.6,275.9z"/>
	<path style="fill:#A8A8A5;" d="M258,279.8v-3.9c0-0.3,0.1-0.6,0.2-0.7c0.1-0.2,0.3-0.2,0.6-0.2c0.3,0,0.5,0.1,0.6,0.2
		c0.1,0.2,0.2,0.4,0.2,0.7v4c0,0.5,0,0.8,0.2,1.1c0.1,0.3,0.3,0.5,0.5,0.7c0.3,0.2,0.6,0.3,1.1,0.3c0.6,0,1.1-0.2,1.4-0.5
		s0.4-0.9,0.4-1.5v-4c0-0.3,0.1-0.6,0.2-0.7c0.1-0.2,0.3-0.2,0.6-0.2s0.4,0.1,0.6,0.2c0.2,0.2,0.2,0.4,0.2,0.7v3.9
		c0,0.6-0.1,1.2-0.2,1.6s-0.4,0.8-0.7,1.1c-0.3,0.3-0.6,0.5-1,0.6s-0.8,0.2-1.4,0.2s-1.2-0.1-1.6-0.2s-0.8-0.3-1.1-0.6
		c-0.3-0.3-0.5-0.6-0.6-1.1C258.1,280.9,258,280.4,258,279.8z"/>
</g>
</svg>