<?xml version="1.0" standalone="no"?>
<!DOCTYPE svg PUBLIC "-//W3C//DTD SVG 20010904//EN"
 "http://www.w3.org/TR/2001/REC-SVG-20010904/DTD/svg10.dtd">
<svg version="1.0" xmlns="http://www.w3.org/2000/svg"
 width="537.000000pt" height="464.000000pt" viewBox="0 0 537.000000 464.000000"
 preserveAspectRatio="xMidYMid meet">

<g transform="translate(0.000000,464.000000) scale(0.100000,-0.100000)"
fill="#000000" stroke="none">
<path d="M2673 4209 c-18 -11 -38 -36 -45 -55 -10 -28 -20 -36 -53 -45 -117
-30 -157 -44 -232 -84 -255 -135 -441 -376 -497 -642 -20 -94 -30 -214 -22
-258 7 -34 10 -37 34 -31 207 47 235 50 467 49 173 0 254 -4 325 -17 137 -25
351 -82 450 -121 83 -32 85 -33 83 -65 -3 -63 -18 -66 -134 -26 -117 40 -258
76 -399 103 -118 22 -518 26 -615 5 -224 -48 -188 -30 -430 -211 -121 -90
-225 -172 -232 -180 -21 -27 -15 -60 11 -72 19 -9 48 -6 137 16 194 46 346 65
528 65 233 0 336 -21 521 -105 174 -80 316 -103 430 -69 72 21 124 58 206 148
117 125 270 240 426 318 60 30 80 45 85 66 5 15 8 97 8 182 -1 167 -9 214 -66
361 -32 83 -118 220 -177 282 -137 144 -351 262 -525 292 -30 5 -40 12 -51 40
-21 50 -68 75 -141 75 -43 0 -69 -6 -92 -21z m-43 -244 c3 -49 2 -51 -42 -64
-151 -46 -302 -232 -382 -471 -38 -112 -46 -121 -99 -101 -19 8 -27 18 -27 35
0 28 38 136 81 234 83 184 238 341 398 403 53 20 68 13 71 -36z m271 -44 c172
-154 292 -377 317 -591 6 -47 9 -86 7 -88 -2 -2 -21 -6 -43 -9 -49 -7 -56 4
-66 96 -18 164 -121 356 -261 490 -41 39 -75 76 -75 82 0 21 35 69 50 69 9 0
41 -22 71 -49z"/>
<path d="M1110 2241 c-70 -14 -110 -56 -110 -116 0 -55 27 -84 116 -126 79
-36 85 -41 82 -66 -4 -38 -41 -55 -98 -47 -25 3 -53 10 -63 15 -14 8 -19 4
-28 -17 -14 -38 -7 -48 39 -62 81 -24 178 -9 218 35 18 19 24 37 24 70 0 62
-22 98 -72 120 -123 53 -146 74 -118 108 14 17 86 20 124 6 22 -9 26 -7 35 21
13 37 9 45 -29 52 -63 12 -86 14 -120 7z"/>
<path d="M1975 2240 c-99 -14 -165 -100 -165 -215 0 -79 30 -139 88 -180 39
-27 52 -30 116 -30 63 0 78 4 115 28 75 50 109 158 80 260 -11 40 -58 100 -93
119 -30 16 -94 24 -141 18z m94 -85 c52 -27 76 -129 47 -199 -18 -44 -52 -66
-101 -66 -73 0 -115 51 -115 140 0 28 7 64 15 80 28 54 98 75 154 45z"/>
<path d="M3902 2238 c-99 -17 -154 -82 -160 -188 -6 -104 28 -179 98 -215 42
-22 129 -29 193 -15 l58 12 -3 101 -3 102 -40 0 -40 0 -3 -72 c-3 -82 -13 -92
-80 -74 -61 17 -85 50 -90 125 -8 130 68 183 204 141 18 -6 23 -1 33 26 14 40
14 36 -6 44 -35 14 -119 21 -161 13z"/>
<path d="M1375 2218 c-3 -13 -4 -106 -3 -208 l3 -185 42 -3 42 -3 3 88 3 88
82 3 82 3 3 -88 3 -88 43 -3 42 -3 0 211 0 211 -42 -3 -43 -3 -5 -80 -5 -80
-80 0 -80 0 -3 83 -3 82 -39 0 c-33 0 -41 -4 -45 -22z"/>
<path d="M2317 2233 c-4 -3 -7 -98 -7 -210 l0 -204 43 3 42 3 3 66 3 66 60 7
c117 12 159 51 159 146 0 92 -63 130 -216 130 -44 0 -84 -3 -87 -7z m176 -74
c29 -16 37 -28 37 -61 0 -36 -33 -58 -87 -58 l-43 0 0 65 0 65 36 0 c19 0 45
-5 57 -11z"/>
<path d="M2711 2226 c-8 -9 -11 -73 -9 -207 l3 -194 43 -3 42 -3 0 69 0 69 60
6 c33 4 76 13 95 21 109 46 93 213 -24 246 -55 15 -196 13 -210 -4z m201 -86
c42 -51 6 -100 -72 -100 l-50 0 0 58 c0 32 3 62 8 66 15 16 96 -1 114 -24z"/>
<path d="M3100 2030 l0 -210 40 0 40 0 0 210 0 210 -40 0 -40 0 0 -210z"/>
<path d="M3297 2233 c-4 -3 -7 -98 -7 -210 l0 -204 43 3 42 3 5 135 5 134 43
-54 c24 -30 66 -91 95 -137 50 -81 53 -83 87 -81 l35 3 0 205 0 205 -40 0 -40
0 -3 -117 c-1 -65 -6 -118 -10 -118 -4 1 -29 33 -57 72 -81 115 -133 168 -164
168 -15 0 -31 -3 -34 -7z"/>
<path d="M1046 1668 c-20 -147 -58 -676 -49 -690 2 -5 37 -8 77 -8 l73 0 7
158 c10 246 18 334 28 324 5 -5 45 -92 88 -193 l78 -184 59 -3 58 -2 79 187
c43 104 82 192 86 197 11 11 20 -86 28 -299 l7 -180 78 -3 77 -3 0 28 c0 55
-32 500 -43 602 l-12 106 -76 3 -75 3 -57 -118 c-31 -65 -74 -161 -96 -213
-22 -52 -43 -96 -48 -97 -5 -2 -31 47 -58 109 -26 62 -70 159 -97 216 l-50
102 -78 0 -78 0 -6 -42z"/>
<path d="M2169 1643 c-85 -188 -259 -635 -259 -665 0 -5 37 -8 82 -6 l81 3 27
80 27 80 148 0 149 0 29 -82 30 -83 83 0 c46 0 84 2 84 4 0 26 -168 458 -242
624 l-50 112 -80 0 -79 0 -30 -67z m165 -238 c25 -66 46 -126 46 -132 0 -10
-28 -13 -105 -13 -62 0 -105 4 -105 10 0 8 46 134 89 244 7 18 15 26 21 20 5
-5 29 -63 54 -129z"/>
<path d="M2730 1645 l0 -65 166 -2 165 -3 -67 -85 c-72 -92 -136 -184 -226
-325 -51 -80 -58 -96 -58 -142 l0 -53 290 0 290 0 0 70 0 70 -191 0 -191 0 23
38 c46 76 181 260 264 359 82 98 85 103 85 152 l0 51 -275 0 -275 0 0 -65z"/>
<path d="M3585 1603 c-97 -220 -235 -584 -235 -619 0 -11 18 -14 78 -14 l78 0
23 73 c13 39 28 78 33 85 15 17 283 17 295 0 4 -7 19 -44 33 -83 l25 -70 83
-3 c47 -2 82 1 82 7 0 31 -158 442 -238 621 l-47 105 -81 3 -82 3 -47 -108z
m158 -130 c58 -151 75 -202 70 -207 -9 -9 -201 -7 -206 2 -5 10 93 272 102
272 5 0 20 -30 34 -67z"/>
</g>
</svg>
